<mxfile host="Electron" modified="2023-07-08T01:30:49.866Z" agent="Mozilla/5.0 (Windows NT 10.0; Win64; x64) AppleWebKit/537.36 (KHTML, like Gecko) draw.io/21.2.1 Chrome/112.0.5615.87 Electron/24.1.2 Safari/537.36" etag="lNip5W4RXSu5LrfC03-4" version="21.2.1" type="device">
  <diagram name="Página-1" id="vcobE4NEIwWDz8Z4E6kp">
    <mxGraphModel dx="823" dy="491" grid="1" gridSize="10" guides="1" tooltips="1" connect="1" arrows="1" fold="1" page="1" pageScale="1" pageWidth="827" pageHeight="1169" math="0" shadow="0">
      <root>
        <mxCell id="0" />
        <mxCell id="1" parent="0" />
        <mxCell id="RW__FhXy3jNXZwr-xMih-1" value="«class»&lt;br&gt;&lt;b&gt;Server&lt;/b&gt;" style="html=1;whiteSpace=wrap;" vertex="1" parent="1">
          <mxGeometry x="60" y="110" width="110" height="50" as="geometry" />
        </mxCell>
        <mxCell id="RW__FhXy3jNXZwr-xMih-2" value="«class»&lt;br&gt;&lt;b&gt;ContentHandler&lt;/b&gt;" style="html=1;whiteSpace=wrap;" vertex="1" parent="1">
          <mxGeometry x="470" y="110" width="110" height="50" as="geometry" />
        </mxCell>
        <mxCell id="RW__FhXy3jNXZwr-xMih-4" value="«class»&lt;br&gt;&lt;b&gt;TravelerAssistant&lt;/b&gt;" style="html=1;whiteSpace=wrap;" vertex="1" parent="1">
          <mxGeometry x="60" y="240" width="110" height="50" as="geometry" />
        </mxCell>
        <mxCell id="RW__FhXy3jNXZwr-xMih-6" value="" style="endArrow=classic;html=1;rounded=0;entryX=0;entryY=0.5;entryDx=0;entryDy=0;exitX=1;exitY=0.5;exitDx=0;exitDy=0;" edge="1" parent="1" source="RW__FhXy3jNXZwr-xMih-28" target="RW__FhXy3jNXZwr-xMih-2">
          <mxGeometry relative="1" as="geometry">
            <mxPoint x="370" y="100" as="sourcePoint" />
            <mxPoint x="460" y="135" as="targetPoint" />
          </mxGeometry>
        </mxCell>
        <mxCell id="RW__FhXy3jNXZwr-xMih-7" value="lança&amp;nbsp;thread para &lt;br&gt;processar o conteudo&lt;br&gt;da requisição" style="edgeLabel;resizable=0;html=1;align=center;verticalAlign=middle;" connectable="0" vertex="1" parent="RW__FhXy3jNXZwr-xMih-6">
          <mxGeometry relative="1" as="geometry" />
        </mxCell>
        <mxCell id="RW__FhXy3jNXZwr-xMih-8" value="" style="endArrow=classic;html=1;rounded=0;exitX=0;exitY=0.5;exitDx=0;exitDy=0;entryX=1;entryY=0.5;entryDx=0;entryDy=0;startArrow=classic;startFill=1;" edge="1" parent="1" source="RW__FhXy3jNXZwr-xMih-13" target="RW__FhXy3jNXZwr-xMih-4">
          <mxGeometry relative="1" as="geometry">
            <mxPoint x="440" y="340" as="sourcePoint" />
            <mxPoint x="340" y="265" as="targetPoint" />
          </mxGeometry>
        </mxCell>
        <mxCell id="RW__FhXy3jNXZwr-xMih-9" value="objeto de memória&lt;br&gt;&amp;nbsp;compartilhada" style="edgeLabel;resizable=0;html=1;align=center;verticalAlign=middle;" connectable="0" vertex="1" parent="RW__FhXy3jNXZwr-xMih-8">
          <mxGeometry relative="1" as="geometry" />
        </mxCell>
        <mxCell id="RW__FhXy3jNXZwr-xMih-10" value="" style="endArrow=classic;html=1;rounded=0;entryX=0.5;entryY=0;entryDx=0;entryDy=0;exitX=0.5;exitY=1;exitDx=0;exitDy=0;endFill=1;startArrow=classic;startFill=1;" edge="1" parent="1" source="RW__FhXy3jNXZwr-xMih-1" target="RW__FhXy3jNXZwr-xMih-4">
          <mxGeometry relative="1" as="geometry">
            <mxPoint x="170" y="160" as="sourcePoint" />
            <mxPoint x="60" y="355" as="targetPoint" />
          </mxGeometry>
        </mxCell>
        <mxCell id="RW__FhXy3jNXZwr-xMih-11" value="objeto de memória&amp;nbsp;&lt;br&gt;compartilhada" style="edgeLabel;resizable=0;html=1;align=center;verticalAlign=middle;" connectable="0" vertex="1" parent="RW__FhXy3jNXZwr-xMih-10">
          <mxGeometry relative="1" as="geometry" />
        </mxCell>
        <mxCell id="RW__FhXy3jNXZwr-xMih-12" value="«class»&lt;br&gt;&lt;b&gt;ResponseWriter&lt;/b&gt;" style="html=1;whiteSpace=wrap;" vertex="1" parent="1">
          <mxGeometry x="690" y="170" width="110" height="50" as="geometry" />
        </mxCell>
        <mxCell id="RW__FhXy3jNXZwr-xMih-13" value="«class»&lt;br&gt;&lt;b&gt;Handler&lt;/b&gt;" style="html=1;whiteSpace=wrap;" vertex="1" parent="1">
          <mxGeometry x="470" y="240" width="110" height="50" as="geometry" />
        </mxCell>
        <mxCell id="RW__FhXy3jNXZwr-xMih-16" value="«class»&lt;br&gt;&lt;b&gt;RequestReader&lt;/b&gt;" style="html=1;whiteSpace=wrap;" vertex="1" parent="1">
          <mxGeometry x="690" y="40" width="110" height="50" as="geometry" />
        </mxCell>
        <mxCell id="RW__FhXy3jNXZwr-xMih-19" value="«class»&lt;br&gt;&lt;b&gt;biluteteia&lt;/b&gt;" style="html=1;whiteSpace=wrap;" vertex="1" parent="1">
          <mxGeometry x="390" y="360" width="110" height="50" as="geometry" />
        </mxCell>
        <mxCell id="RW__FhXy3jNXZwr-xMih-21" value="" style="endArrow=classic;html=1;rounded=0;exitX=0;exitY=0.5;exitDx=0;exitDy=0;entryX=1;entryY=0.75;entryDx=0;entryDy=0;startArrow=classic;startFill=1;" edge="1" parent="1" source="RW__FhXy3jNXZwr-xMih-12" target="RW__FhXy3jNXZwr-xMih-2">
          <mxGeometry relative="1" as="geometry">
            <mxPoint x="640" y="190" as="sourcePoint" />
            <mxPoint x="510" y="190" as="targetPoint" />
          </mxGeometry>
        </mxCell>
        <mxCell id="RW__FhXy3jNXZwr-xMih-22" value="escreve a requisição e&lt;br style=&quot;border-color: var(--border-color);&quot;&gt;instância a classe" style="edgeLabel;resizable=0;html=1;align=center;verticalAlign=middle;" connectable="0" vertex="1" parent="RW__FhXy3jNXZwr-xMih-21">
          <mxGeometry relative="1" as="geometry" />
        </mxCell>
        <mxCell id="RW__FhXy3jNXZwr-xMih-23" value="" style="endArrow=classic;html=1;rounded=0;exitX=1;exitY=0.25;exitDx=0;exitDy=0;entryX=0;entryY=0.75;entryDx=0;entryDy=0;startArrow=classic;startFill=1;" edge="1" parent="1" source="RW__FhXy3jNXZwr-xMih-2" target="RW__FhXy3jNXZwr-xMih-16">
          <mxGeometry relative="1" as="geometry">
            <mxPoint x="700" y="225" as="sourcePoint" />
            <mxPoint x="590" y="158" as="targetPoint" />
          </mxGeometry>
        </mxCell>
        <mxCell id="RW__FhXy3jNXZwr-xMih-24" value="lê a requisição e &lt;br&gt;instância a classe" style="edgeLabel;resizable=0;html=1;align=center;verticalAlign=middle;" connectable="0" vertex="1" parent="RW__FhXy3jNXZwr-xMih-23">
          <mxGeometry relative="1" as="geometry" />
        </mxCell>
        <mxCell id="RW__FhXy3jNXZwr-xMih-25" value="" style="endArrow=classic;html=1;rounded=0;entryX=0.5;entryY=0;entryDx=0;entryDy=0;endFill=1;startArrow=classic;startFill=1;" edge="1" parent="1" target="RW__FhXy3jNXZwr-xMih-13">
          <mxGeometry relative="1" as="geometry">
            <mxPoint x="525" y="160" as="sourcePoint" />
            <mxPoint x="524.5" y="240" as="targetPoint" />
          </mxGeometry>
        </mxCell>
        <mxCell id="RW__FhXy3jNXZwr-xMih-26" value="processa instância &lt;br&gt;da&amp;nbsp; requisição" style="edgeLabel;resizable=0;html=1;align=center;verticalAlign=middle;" connectable="0" vertex="1" parent="RW__FhXy3jNXZwr-xMih-25">
          <mxGeometry relative="1" as="geometry" />
        </mxCell>
        <mxCell id="RW__FhXy3jNXZwr-xMih-27" value="" style="endArrow=classic;html=1;rounded=0;entryX=0;entryY=0.5;entryDx=0;entryDy=0;" edge="1" parent="1" target="RW__FhXy3jNXZwr-xMih-1">
          <mxGeometry width="50" height="50" relative="1" as="geometry">
            <mxPoint x="10" y="135" as="sourcePoint" />
            <mxPoint x="490" y="200" as="targetPoint" />
          </mxGeometry>
        </mxCell>
        <mxCell id="RW__FhXy3jNXZwr-xMih-28" value="«class»&lt;br&gt;&lt;b&gt;CommandHandler&lt;/b&gt;" style="html=1;whiteSpace=wrap;" vertex="1" parent="1">
          <mxGeometry x="270" y="10" width="110" height="50" as="geometry" />
        </mxCell>
        <mxCell id="RW__FhXy3jNXZwr-xMih-29" value="" style="endArrow=classic;html=1;rounded=0;exitX=0;exitY=0.5;exitDx=0;exitDy=0;entryX=1;entryY=0.5;entryDx=0;entryDy=0;startArrow=classic;startFill=1;" edge="1" parent="1" source="RW__FhXy3jNXZwr-xMih-28" target="RW__FhXy3jNXZwr-xMih-1">
          <mxGeometry relative="1" as="geometry">
            <mxPoint x="370" y="120" as="sourcePoint" />
            <mxPoint x="70" y="110" as="targetPoint" />
          </mxGeometry>
        </mxCell>
        <mxCell id="RW__FhXy3jNXZwr-xMih-30" value="processa o campo &lt;br&gt;comando da requisição" style="edgeLabel;resizable=0;html=1;align=center;verticalAlign=middle;" connectable="0" vertex="1" parent="RW__FhXy3jNXZwr-xMih-29">
          <mxGeometry relative="1" as="geometry" />
        </mxCell>
      </root>
    </mxGraphModel>
  </diagram>
</mxfile>
